STARTFONT 2.1
FONT -DEC-Terminal-Bold-R-Normal--28-280-75-75-C-160-iso8859-7
SIZE 28 75 75
FONTBOUNDINGBOX 16 30 0 -6

STARTPROPERTIES 24
FOUNDRY "Monotype"
FAMILY_NAME "VT"
WEIGHT_NAME "Bold"
SLANT "R"
SETWIDTH_NAME "Normal"
ADD_STYLE_NAME ""
PIXEL_SIZE 28
POINT_SIZE 280
RESOLUTION_X 75
RESOLUTION_Y 75
SPACING "C"
AVERAGE_WIDTH 160
CHARSET_REGISTRY "iso8859"
CHARSET_ENCODING "7"
FACE_NAME "VT Bold ISO Latin Greek"
_DEC_DEVICE_FONTNAMES "PS=vt-bold-isolatingreek"
COPYRIGHT "Copyright (c) 1993 Monotype Typography Ltd."
CAP_HEIGHT 17
X_HEIGHT 12
WEIGHT 10
QUAD_WIDTH 16
DEFAULT_CHAR 160
FONT_DESCENT 6
FONT_ASCENT 24
ENDPROPERTIES

CHARS 185

STARTCHAR space
ENCODING 32
SWIDTH 568 0
DWIDTH 16 0
BBX 16 30 0 -6
BITMAP
0000
0000
0000
0000
0000
0000
0000
0000
0000
0000
0000
0000
0000
0000
0000
0000
0000
0000
0000
0000
0000
0000
0000
0000
0000
0000
0000
0000
0000
0000
ENDCHAR

STARTCHAR exclam
ENCODING 33
SWIDTH 568 0
DWIDTH 16 0
BBX 16 30 0 -6
BITMAP
0000
0000
0000
0000
0000
0000
0380
0380
0380
0380
0380
0380
0380
0380
0380
0380
0380
0380
0380
0000
0000
0100
0380
0380
0100
0000
0000
0000
0000
0000
ENDCHAR

STARTCHAR quotedbl
ENCODING 34
SWIDTH 568 0
DWIDTH 16 0
BBX 16 30 0 -6
BITMAP
0000
0000
0000
0000
0E38
0E38
0E38
0E38
0E38
0E38
0E38
0000
0000
0000
0000
0000
0000
0000
0000
0000
0000
0000
0000
0000
0000
0000
0000
0000
0000
0000
ENDCHAR

STARTCHAR numbersign
ENCODING 35
SWIDTH 568 0
DWIDTH 16 0
BBX 16 30 0 -6
BITMAP
0000
0000
0000
0000
0000
0000
0000
0E38
0E38
0E38
0E38
7FFF
7FFF
7FFF
0E38
0E38
0E38
0E38
7FFF
7FFF
7FFF
0E38
0E38
0E38
0E38
0000
0000
0000
0000
0000
ENDCHAR

STARTCHAR dollar
ENCODING 36
SWIDTH 568 0
DWIDTH 16 0
BBX 16 30 0 -6
BITMAP
0000
0000
0000
0000
0000
01C0
01C0
01C0
03E0
0FF8
1E3C
3C1C
3E00
3FE0
3FF8
1FFC
07FE
003E
381E
3C3E
1FFC
07F0
01C0
01C0
01C0
01C0
0000
0000
0000
0000
ENDCHAR

STARTCHAR percent
ENCODING 37
SWIDTH 568 0
DWIDTH 16 0
BBX 16 30 0 -6
BITMAP
0000
0000
0000
0000
0000
0007
7E0E
E71C
E71C
E738
E738
7E70
00E0
00E0
01C0
0380
0380
0700
0F7E
0EE7
1CE7
38E7
38E7
707E
7000
0000
0000
0000
0000
0000
ENDCHAR

STARTCHAR ampersand
ENCODING 38
SWIDTH 568 0
DWIDTH 16 0
BBX 16 30 0 -6
BITMAP
0000
0000
0000
0000
0000
0000
0780
1FE0
1FE0
3CF0
3870
3C70
1CE0
1FE0
0FCF
1F8E
3FCE
3DFC
78FC
7878
7C78
7FFC
7FDE
3F0F
0000
0000
0000
0000
0000
0000
ENDCHAR

STARTCHAR quoteright
ENCODING 39
SWIDTH 568 0
DWIDTH 16 0
BBX 16 30 0 -6
BITMAP
0000
0000
0000
0000
01C0
01C0
01C0
01C0
0380
0700
0000
0000
0000
0000
0000
0000
0000
0000
0000
0000
0000
0000
0000
0000
0000
0000
0000
0000
0000
0000
ENDCHAR

STARTCHAR parenleft
ENCODING 40
SWIDTH 568 0
DWIDTH 16 0
BBX 16 30 0 -6
BITMAP
0000
0000
0000
0000
0000
001C
0078
00F0
00E0
01C0
01C0
0380
0380
0380
0380
0380
0380
0380
0380
01C0
01C0
00E0
00F0
0078
001C
0000
0000
0000
0000
0000
ENDCHAR

STARTCHAR parenright
ENCODING 41
SWIDTH 568 0
DWIDTH 16 0
BBX 16 30 0 -6
BITMAP
0000
0000
0000
0000
0000
1C00
0F00
0780
0380
01C0
01C0
00E0
00E0
00E0
00E0
00E0
00E0
00E0
00E0
01C0
01C0
0380
0780
0F00
1C00
0000
0000
0000
0000
0000
ENDCHAR

STARTCHAR asterisk
ENCODING 42
SWIDTH 568 0
DWIDTH 16 0
BBX 16 30 0 -6
BITMAP
0000
0000
0000
0000
0000
0000
0E38
0F78
0770
0360
1BEC
3FFE
1FFC
03E0
0360
0770
0F78
0E38
0000
0000
0000
0000
0000
0000
0000
0000
0000
0000
0000
0000
ENDCHAR

STARTCHAR plus
ENCODING 43
SWIDTH 568 0
DWIDTH 16 0
BBX 16 30 0 -6
BITMAP
0000
0000
0000
0000
0000
0000
01C0
01C0
01C0
01C0
01C0
01C0
3FFE
3FFE
3FFE
01C0
01C0
01C0
01C0
01C0
01C0
0000
0000
0000
0000
0000
0000
0000
0000
0000
ENDCHAR

STARTCHAR comma
ENCODING 44
SWIDTH 568 0
DWIDTH 16 0
BBX 16 30 0 -6
BITMAP
0000
0000
0000
0000
0000
0000
0000
0000
0000
0000
0000
0000
0000
0000
0000
0000
0000
0000
0000
0000
0000
01C0
01C0
01C0
0380
0700
0C00
0000
0000
0000
ENDCHAR

STARTCHAR minus
ENCODING 45
SWIDTH 568 0
DWIDTH 16 0
BBX 16 30 0 -6
BITMAP
0000
0000
0000
0000
0000
0000
0000
0000
0000
0000
0000
0000
3FFE
3FFE
3FFE
0000
0000
0000
0000
0000
0000
0000
0000
0000
0000
0000
0000
0000
0000
0000
ENDCHAR

STARTCHAR period
ENCODING 46
SWIDTH 568 0
DWIDTH 16 0
BBX 16 30 0 -6
BITMAP
0000
0000
0000
0000
0000
0000
0000
0000
0000
0000
0000
0000
0000
0000
0000
0000
0000
0000
0000
0000
0180
03C0
03C0
0180
0000
0000
0000
0000
0000
0000
ENDCHAR

STARTCHAR slash
ENCODING 47
SWIDTH 568 0
DWIDTH 16 0
BBX 16 30 0 -6
BITMAP
0000
0000
0000
0000
0000
0000
001C
0018
0038
0030
0070
0060
00E0
00C0
01C0
0180
0380
0300
0700
0600
0E00
0C00
1C00
3800
0000
0000
0000
0000
0000
0000
ENDCHAR

STARTCHAR zero
ENCODING 48
SWIDTH 568 0
DWIDTH 16 0
BBX 16 30 0 -6
BITMAP
0000
0000
0000
0000
0000
0000
01E0
07F8
0FFC
1F3E
1E1E
1E1E
1E1E
1E1E
1E1E
1E1E
1E1E
1E1E
1E1E
1E1E
1F3E
0FFC
07F8
01E0
0000
0000
0000
0000
0000
0000
ENDCHAR

STARTCHAR one
ENCODING 49
SWIDTH 568 0
DWIDTH 16 0
BBX 16 30 0 -6
BITMAP
0000
0000
0000
0000
0000
01E0
03E0
07E0
0FE0
1DE0
19E0
01E0
01E0
01E0
01E0
01E0
01E0
01E0
01E0
01E0
1FFE
1FFE
1FFE
1FFE
0000
0000
0000
0000
0000
0000
ENDCHAR

STARTCHAR two
ENCODING 50
SWIDTH 568 0
DWIDTH 16 0
BBX 16 30 0 -6
BITMAP
0000
0000
0000
0000
0000
0000
07F0
0FFC
1FFC
1E3E
1C1E
0C3E
007C
00FC
01F8
03F0
07E0
0FC0
0F80
1F02
1E06
1FFE
1FFE
1FFE
0000
0000
0000
0000
0000
0000
ENDCHAR

STARTCHAR three
ENCODING 51
SWIDTH 568 0
DWIDTH 16 0
BBX 16 30 0 -6
BITMAP
0000
0000
0000
0000
0000
0000
07F0
1FFC
1FFE
1C3E
181E
001C
003C
07F8
07F0
07FC
003C
001E
181E
381E
3C3E
3FFC
1FF8
07E0
0000
0000
0000
0000
0000
0000
ENDCHAR

STARTCHAR four
ENCODING 52
SWIDTH 568 0
DWIDTH 16 0
BBX 16 30 0 -6
BITMAP
0000
0000
0000
0000
0000
0000
001C
003C
007C
00FC
01FC
03FC
07BC
0F3C
1E3C
3C3C
383C
3FFF
3FFF
3FFF
003C
003C
003C
003C
0000
0000
0000
0000
0000
0000
ENDCHAR

STARTCHAR five
ENCODING 53
SWIDTH 568 0
DWIDTH 16 0
BBX 16 30 0 -6
BITMAP
0000
0000
0000
0000
0000
0000
1FFC
1FFC
1FFC
1E00
1E00
1E00
1EF8
1FFC
1FFC
1F3E
001E
001E
001E
181E
1C3E
1FFC
1FFC
07F0
0000
0000
0000
0000
0000
0000
ENDCHAR

STARTCHAR six
ENCODING 54
SWIDTH 568 0
DWIDTH 16 0
BBX 16 30 0 -6
BITMAP
0000
0000
0000
0000
0000
0000
03F0
0FFC
1FFC
1E1C
3C0C
3C00
3DE0
3FF8
3FFC
3E3C
3C1E
3C1E
3C1E
3C1E
1E3C
1FFC
0FF8
03E0
0000
0000
0000
0000
0000
0000
ENDCHAR

STARTCHAR seven
ENCODING 55
SWIDTH 568 0
DWIDTH 16 0
BBX 16 30 0 -6
BITMAP
0000
0000
0000
0000
0000
0000
1FFE
1FFE
1FFE
000E
001E
003E
007C
00F8
01F0
03E0
03C0
0780
0780
0F00
0F00
0F00
0F00
0F00
0000
0000
0000
0000
0000
0000
ENDCHAR

STARTCHAR eight
ENCODING 56
SWIDTH 568 0
DWIDTH 16 0
BBX 16 30 0 -6
BITMAP
0000
0000
0000
0000
0000
0000
03F0
0FFC
1F3E
1E1E
1E1E
0F3C
0FFC
03F0
0FFC
1FFE
3E1F
3C0F
3C0F
3C0F
1E1E
1FFE
0FFC
03F0
0000
0000
0000
0000
0000
0000
ENDCHAR

STARTCHAR nine
ENCODING 57
SWIDTH 568 0
DWIDTH 16 0
BBX 16 30 0 -6
BITMAP
0000
0000
0000
0000
0000
0000
03F0
0FFC
1FFC
1E3E
3C1E
3C1E
3C1E
3C1E
1E3E
1FFE
0FFE
03DE
001E
181E
1C3C
1FFC
0FF8
07E0
0000
0000
0000
0000
0000
0000
ENDCHAR

STARTCHAR colon
ENCODING 58
SWIDTH 568 0
DWIDTH 16 0
BBX 16 30 0 -6
BITMAP
0000
0000
0000
0000
0000
0000
0000
0000
0000
0000
0000
0180
03C0
03C0
0180
0000
0000
0000
0000
0000
0180
03C0
03C0
0180
0000
0000
0000
0000
0000
0000
ENDCHAR

STARTCHAR semicolon
ENCODING 59
SWIDTH 568 0
DWIDTH 16 0
BBX 16 30 0 -6
BITMAP
0000
0000
0000
0000
0000
0000
0000
0000
0000
0000
0000
0000
0180
03C0
03C0
0180
0000
0000
0000
0000
0000
0380
0380
0380
0700
0E00
1800
0000
0000
0000
ENDCHAR

STARTCHAR less
ENCODING 60
SWIDTH 568 0
DWIDTH 16 0
BBX 16 30 0 -6
BITMAP
0000
0000
0000
0000
0000
0000
0000
001E
003C
0078
00F0
01E0
03C0
0780
0F00
0F00
0780
03C0
01E0
00F0
0078
003C
001E
0000
0000
0000
0000
0000
0000
0000
ENDCHAR

STARTCHAR equal
ENCODING 61
SWIDTH 568 0
DWIDTH 16 0
BBX 16 30 0 -6
BITMAP
0000
0000
0000
0000
0000
0000
0000
0000
0000
0000
0000
7FFE
7FFE
7FFE
0000
0000
0000
7FFE
7FFE
7FFE
0000
0000
0000
0000
0000
0000
0000
0000
0000
0000
ENDCHAR

STARTCHAR greater
ENCODING 62
SWIDTH 568 0
DWIDTH 16 0
BBX 16 30 0 -6
BITMAP
0000
0000
0000
0000
0000
0000
0000
1E00
0F00
0780
03C0
01E0
00F0
0078
003C
003C
0078
00F0
01E0
03C0
0780
0F00
1E00
0000
0000
0000
0000
0000
0000
0000
ENDCHAR

STARTCHAR question
ENCODING 63
SWIDTH 568 0
DWIDTH 16 0
BBX 16 30 0 -6
BITMAP
0000
0000
0000
0000
0000
0000
07E0
0FF8
1C7C
1C3C
183C
003C
0078
00F0
01E0
01C0
0380
0380
0380
0000
0000
0000
0180
03C0
0180
0000
0000
0000
0000
0000
ENDCHAR

STARTCHAR at
ENCODING 64
SWIDTH 568 0
DWIDTH 16 0
BBX 16 30 0 -6
BITMAP
0000
0000
0000
0000
0000
0000
07F8
1FFC
1C1C
380E
380E
387E
39FE
3B8E
3B8E
3B8E
39FE
38EE
3800
3800
1C06
1FFE
0FFC
03F8
0000
0000
0000
0000
0000
0000
ENDCHAR

STARTCHAR A
ENCODING 65
SWIDTH 568 0
DWIDTH 16 0
BBX 16 30 0 -6
BITMAP
0000
0000
0000
0000
0000
0000
0180
03C0
03C0
07E0
07E0
0E70
0E70
1E78
1C38
3C3C
3FFC
3FFC
7FFE
781E
781E
F00F
F00F
F00F
0000
0000
0000
0000
0000
0000
ENDCHAR

STARTCHAR B
ENCODING 66
SWIDTH 568 0
DWIDTH 16 0
BBX 16 30 0 -6
BITMAP
0000
0000
0000
0000
0000
0000
7FE0
7FF8
3FFC
3C3C
3C3C
3C3C
3C78
3FF0
3FE0
3FF8
3C3C
3C1E
3C1E
3C1E
3C3E
3FFC
7FF8
7FE0
0000
0000
0000
0000
0000
0000
ENDCHAR

STARTCHAR C
ENCODING 67
SWIDTH 568 0
DWIDTH 16 0
BBX 16 30 0 -6
BITMAP
0000
0000
0000
0000
0000
0000
03F0
0FFC
1FFC
1F1E
3E0E
3C00
3C00
3C00
3C00
3C00
3C00
3C00
3C00
3E0E
1F1E
1FFC
0FF8
03E0
0000
0000
0000
0000
0000
0000
ENDCHAR

STARTCHAR D
ENCODING 68
SWIDTH 568 0
DWIDTH 16 0
BBX 16 30 0 -6
BITMAP
0000
0000
0000
0000
0000
0000
7FE0
7FF8
3FFC
3C3C
3C1E
3C1E
3C1E
3C1E
3C1E
3C1E
3C1E
3C1E
3C1E
3C1E
3C3C
3FFC
7FF8
7FE0
0000
0000
0000
0000
0000
0000
ENDCHAR

STARTCHAR E
ENCODING 69
SWIDTH 568 0
DWIDTH 16 0
BBX 16 30 0 -6
BITMAP
0000
0000
0000
0000
0000
0000
3FFE
3FFE
1FFE
1E06
1E02
1E00
1E00
1FF0
1FF0
1FF0
1E00
1E00
1E00
1E02
1E06
1FFE
3FFE
3FFE
0000
0000
0000
0000
0000
0000
ENDCHAR

STARTCHAR F
ENCODING 70
SWIDTH 568 0
DWIDTH 16 0
BBX 16 30 0 -6
BITMAP
0000
0000
0000
0000
0000
0000
1FFE
1FFE
0FFE
0F06
0F02
0F00
0F00
0F00
0FF0
0FF0
0FF0
0F00
0F00
0F00
0F00
0F00
1FC0
1FC0
0000
0000
0000
0000
0000
0000
ENDCHAR

STARTCHAR G
ENCODING 71
SWIDTH 568 0
DWIDTH 16 0
BBX 16 30 0 -6
BITMAP
0000
0000
0000
0000
0000
0000
03F0
0FFC
1FFE
1E0E
3C0C
3C00
3C00
3C00
3C00
3C7E
3C7E
3C7E
3C0E
3E0E
1F1E
1FFE
0FFE
03EE
0000
0000
0000
0000
0000
0000
ENDCHAR

STARTCHAR H
ENCODING 72
SWIDTH 568 0
DWIDTH 16 0
BBX 16 30 0 -6
BITMAP
0000
0000
0000
0000
0000
0000
7E3F
3C1E
3C1E
3C1E
3C1E
3C1E
3C1E
3FFE
3FFE
3FFE
3C1E
3C1E
3C1E
3C1E
3C1E
3C1E
3C1E
7E3F
0000
0000
0000
0000
0000
0000
ENDCHAR

STARTCHAR I
ENCODING 73
SWIDTH 568 0
DWIDTH 16 0
BBX 16 30 0 -6
BITMAP
0000
0000
0000
0000
0000
0000
1FF8
1FF8
03C0
03C0
03C0
03C0
03C0
03C0
03C0
03C0
03C0
03C0
03C0
03C0
03C0
03C0
1FF8
1FF8
0000
0000
0000
0000
0000
0000
ENDCHAR

STARTCHAR J
ENCODING 74
SWIDTH 568 0
DWIDTH 16 0
BBX 16 30 0 -6
BITMAP
0000
0000
0000
0000
0000
0000
03FC
03FC
003C
003C
003C
003C
003C
003C
003C
003C
003C
003C
383C
383C
3C78
1FF8
1FF0
07C0
0000
0000
0000
0000
0000
0000
ENDCHAR

STARTCHAR K
ENCODING 75
SWIDTH 568 0
DWIDTH 16 0
BBX 16 30 0 -6
BITMAP
0000
0000
0000
0000
0000
0000
7E1E
7E3E
3C78
3CF0
3DE0
3DC0
3F80
3F80
3F80
3FC0
3FC0
3DE0
3CF0
3CF0
3C78
3C3C
7E7F
7E7F
0000
0000
0000
0000
0000
0000
ENDCHAR

STARTCHAR L
ENCODING 76
SWIDTH 568 0
DWIDTH 16 0
BBX 16 30 0 -6
BITMAP
0000
0000
0000
0000
0000
0000
1F80
1F80
0F00
0F00
0F00
0F00
0F00
0F00
0F00
0F00
0F00
0F00
0F00
0F02
0F06
1FFE
1FFE
1FFE
0000
0000
0000
0000
0000
0000
ENDCHAR

STARTCHAR M
ENCODING 77
SWIDTH 568 0
DWIDTH 16 0
BBX 16 30 0 -6
BITMAP
0000
0000
0000
0000
0000
0000
F81F
F81F
7C3E
7C3E
7C3E
7E7E
7E7E
7E7E
7FFE
7BDE
7BDE
7BDE
799E
799E
781E
781E
F81F
F81F
0000
0000
0000
0000
0000
0000
ENDCHAR

STARTCHAR N
ENCODING 78
SWIDTH 568 0
DWIDTH 16 0
BBX 16 30 0 -6
BITMAP
0000
0000
0000
0000
0000
0000
7C3F
7C3F
3E1E
3E1E
3F1E
3F1E
3F9E
3F9E
3DDE
3DDE
3CFE
3CFE
3C7E
3C7E
3C3E
3C3E
7E1F
7E1F
0000
0000
0000
0000
0000
0000
ENDCHAR

STARTCHAR O
ENCODING 79
SWIDTH 568 0
DWIDTH 16 0
BBX 16 30 0 -6
BITMAP
0000
0000
0000
0000
0000
0000
03E0
0FF8
1FFC
1E3C
3C1E
3C1E
3C1E
3C1E
3C1E
3C1E
3C1E
3C1E
3C1E
3C1E
1E3C
1FFC
0FF8
03E0
0000
0000
0000
0000
0000
0000
ENDCHAR

STARTCHAR P
ENCODING 80
SWIDTH 568 0
DWIDTH 16 0
BBX 16 30 0 -6
BITMAP
0000
0000
0000
0000
0000
0000
3FF8
3FFE
1FFE
1E1F
1E0F
1E0F
1E0F
1E0F
1E1F
1FFE
1FFC
1FF0
1E00
1E00
1E00
1E00
3F00
3F00
0000
0000
0000
0000
0000
0000
ENDCHAR

STARTCHAR Q
ENCODING 81
SWIDTH 568 0
DWIDTH 16 0
BBX 16 30 0 -6
BITMAP
0000
0000
0000
0000
0000
0000
03E0
0FF8
1FFC
1E3C
3C1E
3C1E
3C1E
3C1E
3C1E
3C1E
3C1E
3C1E
3C1E
3C1E
1E7C
1FBC
0FF8
03FC
000E
0007
0000
0000
0000
0000
ENDCHAR

STARTCHAR R
ENCODING 82
SWIDTH 568 0
DWIDTH 16 0
BBX 16 30 0 -6
BITMAP
0000
0000
0000
0000
0000
0000
7FE0
7FF8
3FFC
3C7C
3C3C
3C3C
3C3C
3C78
3FF0
3FE0
3FE0
3CF0
3C78
3C78
3C3C
3C3C
7E1E
7E1F
0000
0000
0000
0000
0000
0000
ENDCHAR

STARTCHAR S
ENCODING 83
SWIDTH 568 0
DWIDTH 16 0
BBX 16 30 0 -6
BITMAP
0000
0000
0000
0000
0000
0000
07F0
1FFC
1FFC
3E1E
3C0E
3E00
3F80
1FE0
0FF8
03FC
00FE
003E
001E
381E
3C3E
3FFC
1FF8
07E0
0000
0000
0000
0000
0000
0000
ENDCHAR

STARTCHAR T
ENCODING 84
SWIDTH 568 0
DWIDTH 16 0
BBX 16 30 0 -6
BITMAP
0000
0000
0000
0000
0000
0000
3FFF
3FFF
3FFF
31E3
21E1
01E0
01E0
01E0
01E0
01E0
01E0
01E0
01E0
01E0
01E0
01E0
07F8
07F8
0000
0000
0000
0000
0000
0000
ENDCHAR

STARTCHAR U
ENCODING 85
SWIDTH 568 0
DWIDTH 16 0
BBX 16 30 0 -6
BITMAP
0000
0000
0000
0000
0000
0000
7C1F
7C1F
3C1E
3C1E
3C1E
3C1E
3C1E
3C1E
3C1E
3C1E
3C1E
3C1E
3C1E
3C1E
1E3C
1FFC
0FF8
03E0
0000
0000
0000
0000
0000
0000
ENDCHAR

STARTCHAR V
ENCODING 86
SWIDTH 568 0
DWIDTH 16 0
BBX 16 30 0 -6
BITMAP
0000
0000
0000
0000
0000
0000
780F
780F
380E
3C1E
3C1E
3C1E
1C1C
1C1C
1E3C
0E38
0E38
0F78
0F78
0770
07F0
03E0
03E0
01C0
0000
0000
0000
0000
0000
0000
ENDCHAR

STARTCHAR W
ENCODING 87
SWIDTH 568 0
DWIDTH 16 0
BBX 16 30 0 -6
BITMAP
0000
0000
0000
0000
0000
0000
F00F
F00F
700E
700E
700E
718E
718E
718E
73CE
73CE
73CE
77EE
7E7E
7E7E
3C3C
381C
381C
300C
0000
0000
0000
0000
0000
0000
ENDCHAR

STARTCHAR X
ENCODING 88
SWIDTH 568 0
DWIDTH 16 0
BBX 16 30 0 -6
BITMAP
0000
0000
0000
0000
0000
0000
781E
3C3C
3C3C
1E78
1E70
0FF0
07E0
07E0
03C0
07E0
0FF0
0E70
1E78
1C38
3C3C
3C3C
781E
781E
0000
0000
0000
0000
0000
0000
ENDCHAR

STARTCHAR Y
ENCODING 89
SWIDTH 568 0
DWIDTH 16 0
BBX 16 30 0 -6
BITMAP
0000
0000
0000
0000
0000
0000
F00F
F81F
781E
3C3C
1C38
1E78
0FF0
07E0
07E0
03C0
03C0
03C0
03C0
03C0
03C0
03C0
0FF0
0FF0
0000
0000
0000
0000
0000
0000
ENDCHAR

STARTCHAR Z
ENCODING 90
SWIDTH 568 0
DWIDTH 16 0
BBX 16 30 0 -6
BITMAP
0000
0000
0000
0000
0000
0000
3FFC
3FFC
3FFC
3078
20F0
00F0
01E0
03C0
03C0
0780
0F00
0F00
1E00
1E04
3C0C
3FFC
3FFC
3FFC
0000
0000
0000
0000
0000
0000
ENDCHAR

STARTCHAR bracketleft
ENCODING 91
SWIDTH 568 0
DWIDTH 16 0
BBX 16 30 0 -6
BITMAP
0000
0000
0000
0000
0000
01F8
01F8
01C0
01C0
01C0
01C0
01C0
01C0
01C0
01C0
01C0
01C0
01C0
01C0
01C0
01C0
01C0
01C0
01F8
01F8
0000
0000
0000
0000
0000
ENDCHAR

STARTCHAR backslash
ENCODING 92
SWIDTH 568 0
DWIDTH 16 0
BBX 16 30 0 -6
BITMAP
0000
0000
0000
0000
0000
0000
1C00
0C00
0E00
0600
0700
0300
0380
0180
01C0
00C0
00E0
0060
0070
0030
0038
0018
001C
000E
0000
0000
0000
0000
0000
0000
ENDCHAR

STARTCHAR bracketright
ENCODING 93
SWIDTH 568 0
DWIDTH 16 0
BBX 16 30 0 -6
BITMAP
0000
0000
0000
0000
0000
0000
1F80
1F80
0380
0380
0380
0380
0380
0380
0380
0380
0380
0380
0380
0380
0380
0380
0380
1F80
1F80
0000
0000
0000
0000
0000
ENDCHAR

STARTCHAR asciicircum
ENCODING 94
SWIDTH 568 0
DWIDTH 16 0
BBX 16 30 0 -6
BITMAP
0000
0000
0000
03C0
07E0
0FF0
1E78
3C3C
0000
0000
0000
0000
0000
0000
0000
0000
0000
0000
0000
0000
0000
0000
0000
0000
0000
0000
0000
0000
0000
0000
ENDCHAR

STARTCHAR underscore
ENCODING 95
SWIDTH 568 0
DWIDTH 16 0
BBX 16 30 0 -6
BITMAP
0000
0000
0000
0000
0000
0000
0000
0000
0000
0000
0000
0000
0000
0000
0000
0000
0000
0000
0000
0000
3FFF
3FFF
3FFF
0000
0000
0000
0000
0000
0000
0000
ENDCHAR

STARTCHAR quoteleft
ENCODING 96
SWIDTH 568 0
DWIDTH 16 0
BBX 16 30 0 -6
BITMAP
0000
0000
0000
0000
00E0
00E0
00E0
00E0
0070
0038
0000
0000
0000
0000
0000
0000
0000
0000
0000
0000
0000
0000
0000
0000
0000
0000
0000
0000
0000
0000
ENDCHAR

STARTCHAR a
ENCODING 97
SWIDTH 568 0
DWIDTH 16 0
BBX 16 30 0 -6
BITMAP
0000
0000
0000
0000
0000
0000
0000
0000
0000
0000
0000
03F0
0FFC
1FFC
1C3E
001E
07FE
1FFE
3FFE
3C1E
3C3E
3FFE
1FEF
0F8F
0000
0000
0000
0000
0000
0000
ENDCHAR

STARTCHAR b
ENCODING 98
SWIDTH 568 0
DWIDTH 16 0
BBX 16 30 0 -6
BITMAP
0000
0000
0000
0000
0000
0000
FC00
FC00
3C00
3C00
3C00
3DF0
3FFC
3FFE
3C3E
3C1F
3C1F
3C1F
3C1F
3C1E
3C3E
3FFC
3FF8
3DE0
0000
0000
0000
0000
0000
0000
ENDCHAR

STARTCHAR c
ENCODING 99
SWIDTH 568 0
DWIDTH 16 0
BBX 16 30 0 -6
BITMAP
0000
0000
0000
0000
0000
0000
0000
0000
0000
0000
0000
03F8
0FFE
1FFE
1F0E
3E06
3E00
3E00
3E00
3F00
1F8E
1FFE
0FFC
03F0
0000
0000
0000
0000
0000
0000
ENDCHAR

STARTCHAR d
ENCODING 100
SWIDTH 568 0
DWIDTH 16 0
BBX 16 30 0 -6
BITMAP
0000
0000
0000
0000
0000
0000
007E
007E
001E
001E
001E
03DE
0FFE
1FFE
3E3E
3C1E
7C1E
7C1E
7C1E
3C1E
3E3E
1FFE
0FFE
03DF
0000
0000
0000
0000
0000
0000
ENDCHAR

STARTCHAR e
ENCODING 101
SWIDTH 568 0
DWIDTH 16 0
BBX 16 30 0 -6
BITMAP
0000
0000
0000
0000
0000
0000
0000
0000
0000
0000
0000
03F0
0FFC
1FFC
1E3E
3C1E
3FFE
3FFC
3C00
3E00
1F0E
1FFE
0FFC
03F0
0000
0000
0000
0000
0000
0000
ENDCHAR

STARTCHAR f
ENCODING 102
SWIDTH 568 0
DWIDTH 16 0
BBX 16 30 0 -6
BITMAP
0000
0000
0000
0000
0000
0000
00FE
03FF
07CF
0786
0780
0780
3FFC
3FFC
0780
0780
0780
0780
0780
0780
0780
0780
3FF8
3FF8
0000
0000
0000
0000
0000
0000
ENDCHAR

STARTCHAR g
ENCODING 103
SWIDTH 568 0
DWIDTH 16 0
BBX 16 30 0 -6
BITMAP
0000
0000
0000
0000
0000
0000
0000
0000
0000
0000
0000
07F7
1FFF
1E3C
3C1E
3C1E
3C1E
1E3C
1FFC
0FF0
1800
1FFC
1FFE
3C1F
780F
7C1F
3FFE
0FF8
0000
0000
ENDCHAR

STARTCHAR h
ENCODING 104
SWIDTH 568 0
DWIDTH 16 0
BBX 16 30 0 -6
BITMAP
0000
0000
0000
0000
0000
0000
FC00
FC00
3C00
3C00
3C00
3CF8
3DFC
3FFE
3E3E
3C1E
3C1E
3C1E
3C1E
3C1E
3C1E
3C1E
7C1F
7C1F
0000
0000
0000
0000
0000
0000
ENDCHAR

STARTCHAR i
ENCODING 105
SWIDTH 568 0
DWIDTH 16 0
BBX 16 30 0 -6
BITMAP
0000
0000
0000
0000
0000
0000
01E0
01E0
01E0
0000
0000
01E0
1FE0
1FE0
01E0
01E0
01E0
01E0
01E0
01E0
01E0
01E0
1FFE
1FFE
0000
0000
0000
0000
0000
0000
ENDCHAR

STARTCHAR j
ENCODING 106
SWIDTH 568 0
DWIDTH 16 0
BBX 16 30 0 -6
BITMAP
0000
0000
0000
0000
0000
0000
0078
0078
0078
0000
0000
0078
07F8
07F8
0078
0078
0078
0078
0078
0078
0078
0078
3078
3878
3C78
3FF0
1FF0
0FC0
0000
0000
ENDCHAR

STARTCHAR k
ENCODING 107
SWIDTH 568 0
DWIDTH 16 0
BBX 16 30 0 -6
BITMAP
0000
0000
0000
0000
0000
0000
7E00
7E00
1E00
1E00
1E00
1E1E
1E3C
1E78
1EF0
1EE0
1FC0
1FC0
1FE0
1FF0
1EF8
1E7C
3E3E
3E1F
0000
0000
0000
0000
0000
0000
ENDCHAR

STARTCHAR l
ENCODING 108
SWIDTH 568 0
DWIDTH 16 0
BBX 16 30 0 -6
BITMAP
0000
0000
0000
0000
0000
0000
1FC0
1FC0
03C0
03C0
03C0
03C0
03C0
03C0
03C0
03C0
03C0
03C0
03C0
03C0
03C0
03C0
3FFC
3FFC
0000
0000
0000
0000
0000
0000
ENDCHAR

STARTCHAR m
ENCODING 109
SWIDTH 568 0
DWIDTH 16 0
BBX 16 30 0 -6
BITMAP
0000
0000
0000
0000
0000
0000
0000
0000
0000
0000
0000
673C
FFFE
7FFE
79CE
79CE
79CE
79CE
79CE
79CE
79CE
79CE
79CE
F9CF
0000
0000
0000
0000
0000
0000
ENDCHAR

STARTCHAR n
ENCODING 110
SWIDTH 568 0
DWIDTH 16 0
BBX 16 30 0 -6
BITMAP
0000
0000
0000
0000
0000
0000
0000
0000
0000
0000
0000
3CF8
7FFC
7FFE
3E3E
3C1E
3C1E
3C1E
3C1E
3C1E
3C1E
3C1E
7C1F
7C1F
0000
0000
0000
0000
0000
0000
ENDCHAR

STARTCHAR o
ENCODING 111
SWIDTH 568 0
DWIDTH 16 0
BBX 16 30 0 -6
BITMAP
0000
0000
0000
0000
0000
0000
0000
0000
0000
0000
0000
03E0
0FF8
1FFC
3E3E
3C1E
7C1F
7C1F
7C1F
3C1E
3E3E
1FFC
0FF8
03E0
0000
0000
0000
0000
0000
0000
ENDCHAR

STARTCHAR p
ENCODING 112
SWIDTH 568 0
DWIDTH 16 0
BBX 16 30 0 -6
BITMAP
0000
0000
0000
0000
0000
0000
0000
0000
0000
0000
0000
7DE0
7FF8
3FFC
3E3E
3C1E
3C1F
3C1F
3C1F
3C1E
3E3E
3FFC
3FF8
3DE0
3C00
3C00
3C00
7E00
7E00
0000
ENDCHAR

STARTCHAR q
ENCODING 113
SWIDTH 568 0
DWIDTH 16 0
BBX 16 30 0 -6
BITMAP
0000
0000
0000
0000
0000
0000
0000
0000
0000
0000
0000
03DE
0FFE
1FFE
3E3E
3C1E
7C1E
7C1E
7C1E
3C1E
3E3E
1FFE
0FFE
03DE
001E
001E
001E
001F
001F
0000
ENDCHAR

STARTCHAR r
ENCODING 114
SWIDTH 568 0
DWIDTH 16 0
BBX 16 30 0 -6
BITMAP
0000
0000
0000
0000
0000
0000
0000
0000
0000
0000
0000
0F3C
3F7E
3FFE
0FCC
0F80
0F00
0F00
0F00
0F00
0F00
0F00
3FE0
3FE0
0000
0000
0000
0000
0000
0000
ENDCHAR

STARTCHAR s
ENCODING 115
SWIDTH 568 0
DWIDTH 16 0
BBX 16 30 0 -6
BITMAP
0000
0000
0000
0000
0000
0000
0000
0000
0000
0000
0000
07F8
1FFC
3E3C
3C00
3FF0
3FFC
1FFE
0FFE
001E
383E
3FFE
1FFC
07F0
0000
0000
0000
0000
0000
0000
ENDCHAR

STARTCHAR t
ENCODING 116
SWIDTH 568 0
DWIDTH 16 0
BBX 16 30 0 -6
BITMAP
0000
0000
0000
0000
0000
0000
0000
0780
0780
0780
0780
7FFE
7FFE
0780
0780
0780
0780
0780
0780
0780
07C6
03FE
03FC
01F0
0000
0000
0000
0000
0000
0000
ENDCHAR

STARTCHAR u
ENCODING 117
SWIDTH 568 0
DWIDTH 16 0
BBX 16 30 0 -6
BITMAP
0000
0000
0000
0000
0000
0000
0000
0000
0000
0000
0000
3C1E
7C3E
7C3E
3C3E
3C1E
3C1E
3C1E
3C1E
3C1E
3E3E
1FFE
1FDF
0F9F
0000
0000
0000
0000
0000
0000
ENDCHAR

STARTCHAR v
ENCODING 118
SWIDTH 568 0
DWIDTH 16 0
BBX 16 30 0 -6
BITMAP
0000
0000
0000
0000
0000
0000
0000
0000
0000
0000
0000
F81F
F81F
781E
3C3C
3C3C
1C38
1E78
1E70
0FF0
0FE0
07C0
0380
0380
0000
0000
0000
0000
0000
0000
ENDCHAR

STARTCHAR w
ENCODING 119
SWIDTH 568 0
DWIDTH 16 0
BBX 16 30 0 -6
BITMAP
0000
0000
0000
0000
0000
0000
0000
0000
0000
0000
0000
F00F
F00F
781E
781E
799E
3DBC
3DBC
3DBC
1FF8
1FF8
0E70
0E70
0C30
0000
0000
0000
0000
0000
0000
ENDCHAR

STARTCHAR x
ENCODING 120
SWIDTH 568 0
DWIDTH 16 0
BBX 16 30 0 -6
BITMAP
0000
0000
0000
0000
0000
0000
0000
0000
0000
0000
0000
781E
3C3C
1E78
0F70
07E0
07C0
03C0
03E0
07E0
0FF0
1E78
3C3C
783E
0000
0000
0000
0000
0000
0000
ENDCHAR

STARTCHAR y
ENCODING 121
SWIDTH 568 0
DWIDTH 16 0
BBX 16 30 0 -6
BITMAP
0000
0000
0000
0000
0000
0000
0000
0000
0000
0000
0000
7C1F
3C1F
3E1E
1E1E
1E1C
0F1C
0F3C
0F38
07B8
07F0
03F0
03E0
01E0
01C0
61C0
7780
7F00
1E00
0000
ENDCHAR

STARTCHAR z
ENCODING 122
SWIDTH 568 0
DWIDTH 16 0
BBX 16 30 0 -6
BITMAP
0000
0000
0000
0000
0000
0000
0000
0000
0000
0000
0000
1FFC
1FFC
183C
187C
00F8
01F0
03E0
07C0
0F80
1F0C
1E0C
1FFC
1FFC
0000
0000
0000
0000
0000
0000
ENDCHAR

STARTCHAR braceleft
ENCODING 123
SWIDTH 568 0
DWIDTH 16 0
BBX 16 30 0 -6
BITMAP
0000
0000
0000
0000
0000
003C
00FC
01F0
01E0
01E0
01E0
00F0
0078
01E0
0780
01E0
0078
00E0
01E0
01E0
01E0
01E0
00F0
00FC
003C
0000
0000
0000
0000
0000
ENDCHAR

STARTCHAR bar
ENCODING 124
SWIDTH 568 0
DWIDTH 16 0
BBX 16 30 0 -6
BITMAP
0000
0000
0000
0000
01C0
01C0
01C0
01C0
01C0
01C0
01C0
01C0
01C0
01C0
01C0
01C0
01C0
01C0
01C0
01C0
01C0
01C0
01C0
01C0
0000
0000
0000
0000
0000
0000
ENDCHAR

STARTCHAR braceright
ENCODING 125
SWIDTH 568 0
DWIDTH 16 0
BBX 16 30 0 -6
BITMAP
0000
0000
0000
0000
0000
1E00
1F80
07C0
03C0
03C0
03C0
0380
0F00
03C0
00F0
03C0
0F00
0380
03C0
03C0
03C0
03C0
0780
1F80
1E00
0000
0000
0000
0000
0000
ENDCHAR

STARTCHAR asciitilde
ENCODING 126
SWIDTH 568 0
DWIDTH 16 0
BBX 16 30 0 -6
BITMAP
0000
0000
0E0C
1F8C
3FDC
3BFC
30F8
3070
0000
0000
0000
0000
0000
0000
0000
0000
0000
0000
0000
0000
0000
0000
0000
0000
0000
0000
0000
0000
0000
0000
ENDCHAR

STARTCHAR space
ENCODING 160
SWIDTH 568 0
DWIDTH 16 0
BBX 16 30 0 -6
BITMAP
0000
0000
0000
0000
0000
0000
0000
0000
0000
0000
0000
0000
0000
0000
0000
0000
0000
0000
0000
0000
0000
0000
0000
0000
0000
0000
0000
0000
0000
0000
ENDCHAR

STARTCHAR quoteleft
ENCODING 161
SWIDTH 568 0
DWIDTH 16 0
BBX 16 30 0 -6
BITMAP
0000
0000
0000
0000
00E0
00E0
00E0
00E0
0070
0038
0000
0000
0000
0000
0000
0000
0000
0000
0000
0000
0000
0000
0000
0000
0000
0000
0000
0000
0000
0000
ENDCHAR

STARTCHAR quoteright
ENCODING 162
SWIDTH 568 0
DWIDTH 16 0
BBX 16 30 0 -6
BITMAP
0000
0000
0000
0000
01C0
01C0
01C0
01C0
0380
0700
0000
0000
0000
0000
0000
0000
0000
0000
0000
0000
0000
0000
0000
0000
0000
0000
0000
0000
0000
0000
ENDCHAR

STARTCHAR sterling
ENCODING 163
SWIDTH 568 0
DWIDTH 16 0
BBX 16 30 0 -6
BITMAP
0000
0000
0000
0000
0000
0000
03F0
07F8
0F9C
0F1C
0F00
0F00
0F00
0F00
3FF0
3FF0
0F00
0F00
0F00
0F02
0F86
1FFE
3FFE
79FC
0000
0000
0000
0000
0000
0000
ENDCHAR

STARTCHAR brokenbar
ENCODING 166
SWIDTH 568 0
DWIDTH 16 0
BBX 16 30 0 -6
BITMAP
0000
0000
0000
0000
01C0
01C0
01C0
01C0
01C0
01C0
01C0
01C0
0000
0000
0000
0000
01C0
01C0
01C0
01C0
01C0
01C0
01C0
01C0
0000
0000
0000
0000
0000
0000
ENDCHAR

STARTCHAR section
ENCODING 167
SWIDTH 568 0
DWIDTH 16 0
BBX 16 30 0 -6
BITMAP
0000
0000
0000
0000
07E0
1FF8
3FFC
3C1C
380C
3C00
1FC0
0FF0
1FF8
3C3C
381C
381C
3C3C
1FF8
0FFC
03FE
001E
301E
783E
7FFC
3FF8
0FE0
0000
0000
0000
0000
ENDCHAR

STARTCHAR dieresis
ENCODING 168
SWIDTH 568 0
DWIDTH 16 0
BBX 16 30 0 -6
BITMAP
0000
0000
0000
0000
0000
0630
0F78
0F78
0630
0000
0000
0000
0000
0000
0000
0000
0000
0000
0000
0000
0000
0000
0000
0000
0000
0000
0000
0000
0000
0000
ENDCHAR

STARTCHAR copyright
ENCODING 169
SWIDTH 568 0
DWIDTH 16 0
BBX 16 30 0 -6
BITMAP
0000
0000
0000
0000
0000
0000
3FFC
7FFE
700E
6006
63E6
67E6
6E26
6E06
6E06
6E06
6E06
6F26
6FE6
67E6
6006
700E
7FFE
3FFC
0000
0000
0000
0000
0000
0000
ENDCHAR

STARTCHAR guillemotleft
ENCODING 171
SWIDTH 568 0
DWIDTH 16 0
BBX 16 30 0 -6
BITMAP
0000
0000
0000
0000
0000
0000
0000
0000
0000
0000
0000
079E
0F3C
1E78
3CF0
79E0
F3E0
79E0
3CF0
1E78
0F3C
079E
0000
0000
0000
0000
0000
0000
0000
0000
ENDCHAR

STARTCHAR logicalnot
ENCODING 172
SWIDTH 568 0
DWIDTH 16 0
BBX 16 30 0 -6
BITMAP
0000
0000
0000
0000
0000
0000
0FF8
0FF8
0FF8
0038
0038
0000
0000
0000
0000
0000
0000
0000
0000
0000
0000
0000
0000
0000
0000
0000
0000
0000
0000
0000
ENDCHAR

STARTCHAR hyphen
ENCODING 173
SWIDTH 568 0
DWIDTH 16 0
BBX 16 30 0 -6
BITMAP
0000
0000
0000
0000
0000
0000
0000
0000
0000
0000
0000
0000
0FF8
0FF8
0FF8
0000
0000
0000
0000
0000
0000
0000
0000
0000
0000
0000
0000
0000
0000
0000
ENDCHAR

STARTCHAR endash
ENCODING 175
SWIDTH 568 0
DWIDTH 16 0
BBX 16 30 0 -6
BITMAP
0000
0000
0000
0000
0000
0000
0000
0000
0000
0000
0000
0000
FFFF
FFFF
FFFF
0000
0000
0000
0000
0000
0000
0000
0000
0000
0000
0000
0000
0000
0000
0000
ENDCHAR

STARTCHAR degree
ENCODING 176
SWIDTH 568 0
DWIDTH 16 0
BBX 16 30 0 -6
BITMAP
0000
0000
0780
0FC0
1CE0
1CE0
1CE0
0FC0
0780
0000
0000
0000
0000
0000
0000
0000
0000
0000
0000
0000
0000
0000
0000
0000
0000
0000
0000
0000
0000
0000
ENDCHAR

STARTCHAR plusminus
ENCODING 177
SWIDTH 568 0
DWIDTH 16 0
BBX 16 30 0 -6
BITMAP
0000
0000
0000
0000
0000
0000
01C0
01C0
01C0
01C0
3FFE
3FFE
3FFE
01C0
01C0
01C0
01C0
0000
0000
3FFE
3FFE
3FFE
0000
0000
0000
0000
0000
0000
0000
0000
ENDCHAR

STARTCHAR twosuperior
ENCODING 178
SWIDTH 568 0
DWIDTH 16 0
BBX 16 30 0 -6
BITMAP
0000
0000
0000
0000
07C0
0FE0
1CF0
0070
00F0
03E0
07C0
0F00
1E10
1FF0
1FF0
0000
0000
0000
0000
0000
0000
0000
0000
0000
0000
0000
0000
0000
0000
0000
ENDCHAR

STARTCHAR threesuperior
ENCODING 179
SWIDTH 568 0
DWIDTH 16 0
BBX 16 30 0 -6
BITMAP
0000
0000
0000
0000
0FC0
1FE0
18F0
0070
03E0
03E0
0070
0070
18F0
1FE0
0F80
0000
0000
0000
0000
0000
0000
0000
0000
0000
0000
0000
0000
0000
0000
0000
ENDCHAR

STARTCHAR acute
ENCODING 180
SWIDTH 568 0
DWIDTH 16 0
BBX 16 30 0 -6
BITMAP
0000
0000
0000
0000
0000
00F0
00E0
01C0
0180
0000
0000
0000
0000
0000
0000
0000
0000
0000
0000
0000
0000
0000
0000
0000
0000
0000
0000
0000
0000
0000
ENDCHAR

STARTCHAR dieresisacute
ENCODING 181
SWIDTH 568 0
DWIDTH 16 0
BBX 16 30 0 -6
BITMAP
0000
0000
0000
0000
0000
1876
3CEF
3DCF
1B86
0000
0000
0000
0000
0000
0000
0000
0000
0000
0000
0000
0000
0000
0000
0000
0000
0000
0000
0000
0000
0000
ENDCHAR

STARTCHAR afii9936
ENCODING 182
SWIDTH 568 0
DWIDTH 16 0
BBX 16 30 0 -6
BITMAP
0000
0000
0000
0000
0000
0000
7180
63C0
C3C0
87E0
07E0
0E70
0E70
1E78
1C38
3C3C
3FFC
3FFC
7FFE
781E
781E
F00F
F00F
F00F
0000
0000
0000
0000
0000
0000
ENDCHAR

STARTCHAR periodcentered
ENCODING 183
SWIDTH 568 0
DWIDTH 16 0
BBX 16 30 0 -6
BITMAP
0000
0000
0000
0000
0000
0000
0000
0000
0000
0000
0000
0000
0180
07E0
07F0
07F0
07E0
01C0
0000
0000
0000
0000
0000
0000
0000
0000
0000
0000
0000
0000
ENDCHAR

STARTCHAR afii9937
ENCODING 184
SWIDTH 568 0
DWIDTH 16 0
BBX 16 30 0 -6
BITMAP
0000
0000
0000
0000
0000
0000
7FFF
6FFF
CFFF
8F03
0F01
0F00
0F00
0FF8
0FF8
0FF8
0F00
0F00
0F00
0F01
0F03
0FFF
1FFF
1FFF
0000
0000
0000
0000
0000
0000
ENDCHAR

STARTCHAR afii9938
ENCODING 185
SWIDTH 568 0
DWIDTH 16 0
BBX 16 30 0 -6
BITMAP
0000
0000
0000
0000
0000
0000
7F9F
670E
C70E
870E
070E
070E
070E
07FE
07FE
07FE
070E
070E
070E
070E
070E
070E
070E
0F9F
0000
0000
0000
0000
0000
0000
ENDCHAR

STARTCHAR afii9939
ENCODING 186
SWIDTH 568 0
DWIDTH 16 0
BBX 16 30 0 -6
BITMAP
0000
0000
0000
0000
0000
0000
77FE
67FE
C0F0
80F0
00F0
00F0
00F0
00F0
00F0
00F0
00F0
00F0
00F0
00F0
00F0
00F0
07FE
07FE
0000
0000
0000
0000
0000
0000
ENDCHAR

STARTCHAR guillemotright
ENCODING 187
SWIDTH 568 0
DWIDTH 16 0
BBX 16 30 0 -6
BITMAP
0000
0000
0000
0000
0000
0000
0000
0000
0000
0000
0000
79E0
3CF0
1E78
0F3C
079E
03CF
079E
0F3C
1E78
3CF0
79E0
0000
0000
0000
0000
0000
0000
0000
0000
ENDCHAR

STARTCHAR afii9940
ENCODING 188
SWIDTH 568 0
DWIDTH 16 0
BBX 16 30 0 -6
BITMAP
0000
0000
0000
0000
0000
0000
71F0
67FC
CFFE
8F1E
1E0F
1E0F
1E0F
1E0F
1E0F
1E0F
1E0F
1E0F
1E0F
1E0F
0F1E
0FFE
07FC
01F0
0000
0000
0000
0000
0000
0000
ENDCHAR

STARTCHAR onehalf
ENCODING 189
SWIDTH 568 0
DWIDTH 16 0
BBX 16 30 0 -6
BITMAP
0000
0000
0000
1C00
3C00
7C00
5C02
1C07
1C0E
1C1C
7F38
7F70
00E0
01C0
03BE
077F
0EE7
1C67
380F
701E
E03C
4070
00FF
00FF
0000
0000
0000
0000
0000
0000
ENDCHAR

STARTCHAR afii9941
ENCODING 190
SWIDTH 568 0
DWIDTH 16 0
BBX 16 30 0 -6
BITMAP
0000
0000
0000
0000
0000
0000
7F0F
6F0F
C79E
879E
079E
079E
079E
03FC
01F8
00F0
00F0
00F0
00F0
00F0
00F0
00F0
03FC
03FC
0000
0000
0000
0000
0000
0000
ENDCHAR

STARTCHAR afii9942
ENCODING 191
SWIDTH 568 0
DWIDTH 16 0
BBX 16 30 0 -6
BITMAP
0000
0000
0000
0000
0000
0000
73E0
6FF8
DFFC
9E3C
3C1E
3C1E
3C1E
3C1E
3C1E
3C1E
3C1E
3C1E
3C1E
1E3C
0E38
0E38
3E3E
3E3E
0000
0000
0000
0000
0000
0000
ENDCHAR

STARTCHAR afii9977
ENCODING 192
SWIDTH 568 0
DWIDTH 16 0
BBX 16 30 0 -6
BITMAP
0000
0000
0000
0000
0000
1876
3CEF
3DCF
1B86
0000
0000
01E0
1FE0
1FE0
01E0
01E0
01E0
01E0
01E0
01E0
01E0
01E0
1FFE
1FFE
0000
0000
0000
0000
0000
0000
ENDCHAR

STARTCHAR afii9793
ENCODING 193
SWIDTH 568 0
DWIDTH 16 0
BBX 16 30 0 -6
BITMAP
0000
0000
0000
0000
0000
0000
0180
03C0
03C0
07E0
07E0
0E70
0E70
1E78
1C38
3C3C
3FFC
3FFC
7FFE
781E
781E
F00F
F00F
F00F
0000
0000
0000
0000
0000
0000
ENDCHAR

STARTCHAR afii9794
ENCODING 194
SWIDTH 568 0
DWIDTH 16 0
BBX 16 30 0 -6
BITMAP
0000
0000
0000
0000
0000
0000
7FE0
7FF8
3FFC
3C3C
3C3C
3C3C
3C78
3FF0
3FE0
3FF8
3C3C
3C1E
3C1E
3C1E
3C3E
3FFC
7FF8
7FE0
0000
0000
0000
0000
0000
0000
ENDCHAR

STARTCHAR afii9796
ENCODING 195
SWIDTH 568 0
DWIDTH 16 0
BBX 16 30 0 -6
BITMAP
0000
0000
0000
0000
0000
0000
1FFE
1FFE
1FFE
0F06
0F02
0F00
0F00
0F00
0F00
0F00
0F00
0F00
0F00
0F00
0F00
0F00
1F80
1F80
0000
0000
0000
0000
0000
0000
ENDCHAR

STARTCHAR afii9797
ENCODING 196
SWIDTH 568 0
DWIDTH 16 0
BBX 16 30 0 -6
BITMAP
0000
0000
0000
0000
0000
0000
0180
03C0
03C0
07E0
0F70
0F78
0E78
1E78
1E38
1C3C
3C3C
3C1C
381E
780F
780F
F00F
FFFF
FFFF
0000
0000
0000
0000
0000
0000
ENDCHAR

STARTCHAR afii9798
ENCODING 197
SWIDTH 568 0
DWIDTH 16 0
BBX 16 30 0 -6
BITMAP
0000
0000
0000
0000
0000
0000
3FFE
3FFE
1FFE
1E06
1E02
1E00
1E00
1FF0
1FF0
1FF0
1E00
1E00
1E00
1E02
1E06
1FFE
3FFE
3FFE
0000
0000
0000
0000
0000
0000
ENDCHAR

STARTCHAR afii9801
ENCODING 198
SWIDTH 568 0
DWIDTH 16 0
BBX 16 30 0 -6
BITMAP
0000
0000
0000
0000
0000
0000
3FFC
3FFC
3FFC
3078
20F0
00F0
01E0
03C0
03C0
0780
0F00
0F00
1E00
1E04
3C0C
3FFC
3FFC
3FFC
0000
0000
0000
0000
0000
0000
ENDCHAR

STARTCHAR afii9802
ENCODING 199
SWIDTH 568 0
DWIDTH 16 0
BBX 16 30 0 -6
BITMAP
0000
0000
0000
0000
0000
0000
7E3F
3C1E
3C1E
3C1E
3C1E
3C1E
3C1E
3FFE
3FFE
3FFE
3C1E
3C1E
3C1E
3C1E
3C1E
3C1E
3C1E
7E3F
0000
0000
0000
0000
0000
0000
ENDCHAR

STARTCHAR afii9803
ENCODING 200
SWIDTH 568 0
DWIDTH 16 0
BBX 16 30 0 -6
BITMAP
0000
0000
0000
0000
0000
0000
03E0
0FF8
1FFC
1E3C
3C1E
3C1E
3D5E
3DDE
3DDE
3D5E
3C1E
3C1E
3C1E
3C1E
1E3C
1FFC
0FF8
03E0
0000
0000
0000
0000
0000
0000
ENDCHAR

STARTCHAR afii9804
ENCODING 201
SWIDTH 568 0
DWIDTH 16 0
BBX 16 30 0 -6
BITMAP
0000
0000
0000
0000
0000
0000
1FF8
1FF8
03C0
03C0
03C0
03C0
03C0
03C0
03C0
03C0
03C0
03C0
03C0
03C0
03C0
03C0
1FF8
1FF8
0000
0000
0000
0000
0000
0000
ENDCHAR

STARTCHAR afii9805
ENCODING 202
SWIDTH 568 0
DWIDTH 16 0
BBX 16 30 0 -6
BITMAP
0000
0000
0000
0000
0000
0000
7E1E
7E3E
3C78
3CF0
3DE0
3DC0
3F80
3F80
3F80
3FC0
3FC0
3DE0
3CF0
3CF0
3C78
3C3C
7E7F
7E7F
0000
0000
0000
0000
0000
0000
ENDCHAR

STARTCHAR afii9806
ENCODING 203
SWIDTH 568 0
DWIDTH 16 0
BBX 16 30 0 -6
BITMAP
0000
0000
0000
0000
0000
0000
01C0
03E0
03E0
07F0
0770
0F78
0F78
0E38
0E38
1E3C
1C1C
1C1C
3C1E
3C1E
3C1E
380E
780F
780F
0000
0000
0000
0000
0000
0000
ENDCHAR

STARTCHAR afii9807
ENCODING 204
SWIDTH 568 0
DWIDTH 16 0
BBX 16 30 0 -6
BITMAP
0000
0000
0000
0000
0000
0000
F81F
F81F
7C3E
7C3E
7C3E
7E7E
7E7E
7E7E
7FFE
7BDE
7BDE
7BDE
799E
799E
781E
781E
F81F
F81F
0000
0000
0000
0000
0000
0000
ENDCHAR

STARTCHAR afii9808
ENCODING 205
SWIDTH 568 0
DWIDTH 16 0
BBX 16 30 0 -6
BITMAP
0000
0000
0000
0000
0000
0000
7C3F
7C3F
3E1E
3E1E
3F1E
3F1E
3F9E
3F9E
3DDE
3DDE
3CFE
3CFE
3C7E
3C7E
3C3E
3C3E
7E1F
7E1F
0000
0000
0000
0000
0000
0000
ENDCHAR

STARTCHAR afii9809
ENCODING 206
SWIDTH 568 0
DWIDTH 16 0
BBX 16 30 0 -6
BITMAP
0000
0000
0000
0000
0000
0000
7FFE
7FFE
7FFE
781E
781E
781E
0000
1E78
1FF8
1FF8
1FF8
1E78
0000
781E
781E
7FFE
7FFE
7FFE
0000
0000
0000
0000
0000
0000
ENDCHAR

STARTCHAR afii9810
ENCODING 207
SWIDTH 568 0
DWIDTH 16 0
BBX 16 30 0 -6
BITMAP
0000
0000
0000
0000
0000
0000
03E0
0FF8
1FFC
1E3C
3C1E
3C1E
3C1E
3C1E
3C1E
3C1E
3C1E
3C1E
3C1E
3C1E
1E3C
1FFC
0FF8
03E0
0000
0000
0000
0000
0000
0000
ENDCHAR

STARTCHAR afii9811
ENCODING 208
SWIDTH 568 0
DWIDTH 16 0
BBX 16 30 0 -6
BITMAP
0000
0000
0000
0000
0000
0000
7FFF
7FFF
3FFE
3C1E
3C1E
3C1E
3C1E
3C1E
3C1E
3C1E
3C1E
3C1E
3C1E
3C1E
3C1E
3C1E
7E3F
7E3F
0000
0000
0000
0000
0000
0000
ENDCHAR

STARTCHAR afii9813
ENCODING 209
SWIDTH 568 0
DWIDTH 16 0
BBX 16 30 0 -6
BITMAP
0000
0000
0000
0000
0000
0000
3FF8
3FFE
1FFE
1E1F
1E0F
1E0F
1E0F
1E0F
1E1F
1FFE
1FFC
1FF0
1E00
1E00
1E00
1E00
3F00
3F00
0000
0000
0000
0000
0000
0000
ENDCHAR

STARTCHAR afii9814
ENCODING 211
SWIDTH 568 0
DWIDTH 16 0
BBX 16 30 0 -6
BITMAP
0000
0000
0000
0000
0000
0000
3FFE
3FFE
3FFE
3C1E
1E1E
1E1E
0F00
0780
03C0
01C0
03C0
0780
0F1E
1E1E
1E1E
3FFE
3FFE
3FFE
0000
0000
0000
0000
0000
0000
ENDCHAR

STARTCHAR afii9816
ENCODING 212
SWIDTH 568 0
DWIDTH 16 0
BBX 16 30 0 -6
BITMAP
0000
0000
0000
0000
0000
0000
3FFF
3FFF
3FFF
31E3
21E1
01E0
01E0
01E0
01E0
01E0
01E0
01E0
01E0
01E0
01E0
01E0
07F8
07F8
0000
0000
0000
0000
0000
0000
ENDCHAR

STARTCHAR afii9817
ENCODING 213
SWIDTH 568 0
DWIDTH 16 0
BBX 16 30 0 -6
BITMAP
0000
0000
0000
0000
0000
0000
F00F
F81F
781E
3C3C
1C38
1E78
0FF0
07E0
07E0
03C0
03C0
03C0
03C0
03C0
03C0
03C0
0FF0
0FF0
0000
0000
0000
0000
0000
0000
ENDCHAR

STARTCHAR afii9818
ENCODING 214
SWIDTH 568 0
DWIDTH 16 0
BBX 16 30 0 -6
BITMAP
0000
0000
0000
0000
0000
0000
0FF0
03C0
03C0
0FF0
3FFC
73CE
F3CF
F3CF
F3CF
F3CF
F3CF
F3CF
73CE
3FFC
0FF0
03C0
03C0
0FF0
0000
0000
0000
0000
0000
0000
ENDCHAR

STARTCHAR afii9819
ENCODING 215
SWIDTH 568 0
DWIDTH 16 0
BBX 16 30 0 -6
BITMAP
0000
0000
0000
0000
0000
0000
781E
3C3C
3C3C
1E78
1E70
0FF0
07E0
07E0
03C0
07E0
0FF0
0E70
1E78
1C38
3C3C
3C3C
781E
781E
0000
0000
0000
0000
0000
0000
ENDCHAR

STARTCHAR afii9820
ENCODING 216
SWIDTH 563 0
DWIDTH 16 0
BBX 16 30 0 -6
BITMAP
0000
0000
0000
0000
0000
0000
F3CF
F3CF
F3CF
F3CF
F3CF
F3CF
F3CF
F3CF
F3CF
7BDE
7BDE
3FFC
0FF0
03C0
03C0
03C0
03C0
03C0
0000
0000
0000
0000
0000
0000
ENDCHAR

STARTCHAR afii9821
ENCODING 217
SWIDTH 568 0
DWIDTH 16 0
BBX 16 30 0 -6
BITMAP
0000
0000
0000
0000
0000
0000
03E0
0FF8
1FFC
1E3C
3C1E
3C1E
3C1E
3C1E
3C1E
3C1E
3C1E
3C1E
3C1E
1E3C
0E38
0E38
3E3E
3E3E
0000
0000
0000
0000
0000
0000
ENDCHAR

STARTCHAR afii9943
ENCODING 218
SWIDTH 568 0
DWIDTH 16 0
BBX 16 30 0 -6
BITMAP
0000
0C30
1E78
1E78
0C30
0000
1FF8
1FF8
03C0
03C0
03C0
03C0
03C0
03C0
03C0
03C0
03C0
03C0
03C0
03C0
03C0
03C0
1FF8
1FF8
0000
0000
0000
0000
0000
0000
ENDCHAR

STARTCHAR afii9944
ENCODING 219
SWIDTH 568 0
DWIDTH 16 0
BBX 16 30 0 -6
BITMAP
0000
0C30
1E78
1E78
0C30
0000
F00F
F81F
781E
3C3C
1C38
1E78
0FF0
07E0
07E0
03C0
03C0
03C0
03C0
03C0
03C0
03C0
0FF0
0FF0
0000
0000
0000
0000
0000
0000
ENDCHAR

STARTCHAR afii9968
ENCODING 220
SWIDTH 568 0
DWIDTH 16 0
BBX 16 30 0 -6
BITMAP
0000
0000
0000
0000
0000
0000
01E0
01C0
0380
0300
0000
07C7
1FEF
3FFF
7C7E
783C
F83C
F83C
F83C
783C
7C7C
3FFF
1FFF
07CF
0000
0000
0000
0000
0000
0000
ENDCHAR

STARTCHAR afii9969
ENCODING 221
SWIDTH 568 0
DWIDTH 16 0
BBX 16 30 0 -6
BITMAP
0000
0000
0000
0000
0000
0000
00F0
00E0
01C0
0180
0000
07DC
0FFC
1FFC
1E1C
0F00
07C0
0F80
1E00
1E00
1E3C
0FFC
07F8
01E0
0000
0000
0000
0000
0000
0000
ENDCHAR

STARTCHAR afii9970
ENCODING 222
SWIDTH 568 0
DWIDTH 16 0
BBX 16 30 0 -6
BITMAP
0000
0000
0000
0000
0000
0000
00F0
00E0
01C0
0180
0000
3CF8
3FFC
3FFE
3E3E
3C1E
3C1E
3C1E
3C1E
3C1E
3C1E
3C1E
3C1E
3C1E
001E
001E
001E
001E
001E
0000
ENDCHAR

STARTCHAR afii9971
ENCODING 223
SWIDTH 568 0
DWIDTH 16 0
BBX 16 30 0 -6
BITMAP
0000
0000
0000
0000
0000
00F0
00E0
01C0
0180
0000
0000
01E0
1FE0
1FE0
01E0
01E0
01E0
01E0
01E0
01E0
01E0
01E0
1FFE
1FFE
0000
0000
0000
0000
0000
0000
ENDCHAR

STARTCHAR afii9978
ENCODING 224
SWIDTH 568 0
DWIDTH 16 0
BBX 16 30 0 -6
BITMAP
0000
0000
0000
0000
0000
0000
30EC
79DE
7B9E
370C
0000
3C1E
3C1E
3C1E
3C1E
3C1E
3C1E
3C1E
3C1E
3C1E
3E3E
1FFC
1FFC
07F0
0000
0000
0000
0000
0000
0000
ENDCHAR

STARTCHAR afii9825
ENCODING 225
SWIDTH 568 0
DWIDTH 16 0
BBX 16 30 0 -6
BITMAP
0000
0000
0000
0000
0000
0000
0000
0000
0000
0000
0000
07C7
1FEF
3FFF
7C7E
783C
F83C
F83C
F83C
783C
7C7C
3FFF
1FFF
07CF
0000
0000
0000
0000
0000
0000
ENDCHAR

STARTCHAR afii9826
ENCODING 226
SWIDTH 568 0
DWIDTH 16 0
BBX 16 30 0 -6
BITMAP
0000
0000
0000
0000
0000
0000
0780
1FE0
3FF0
3878
7878
7878
78F0
7BC0
7BF0
7878
783C
781E
781E
781E
7C3C
7FF8
7FF0
7BC0
7800
7800
7800
7800
7800
0000
ENDCHAR

STARTCHAR afii9828
ENCODING 227
SWIDTH 568 0
DWIDTH 16 0
BBX 16 30 0 -6
BITMAP
0000
0000
0000
0000
0000
0000
0000
0000
0000
0000
0000
F00F
F00F
781E
781E
3C3C
3C3C
1E78
1E78
0FF0
07E0
07E0
03C0
03C0
03C0
03C0
03C0
03C0
0000
0000
ENDCHAR

STARTCHAR afii9829
ENCODING 228
SWIDTH 568 0
DWIDTH 16 0
BBX 16 30 0 -6
BITMAP
0000
0000
0000
0000
0000
0000
1FFC
1FFC
0FFC
0780
03C0
07E0
0FF0
1E78
3C3C
781E
781E
781E
781E
781E
3C3C
1FF8
0FF0
03C0
0000
0000
0000
0000
0000
0000
ENDCHAR

STARTCHAR afii9830
ENCODING 229
SWIDTH 568 0
DWIDTH 16 0
BBX 16 30 0 -6
BITMAP
0000
0000
0000
0000
0000
0000
0000
0000
0000
0000
0000
07DC
0FFC
1FFC
1E1C
0F00
07C0
0F80
1E00
1E00
1E3C
0FFC
07F8
01E0
0000
0000
0000
0000
0000
0000
ENDCHAR

STARTCHAR afii9833
ENCODING 230
SWIDTH 568 0
DWIDTH 16 0
BBX 16 30 0 -6
BITMAP
0000
0000
0000
0000
0000
0000
03FC
03FC
03FC
0078
00F0
01E0
03C0
03C0
0780
0780
0F00
0F00
0F00
0F00
0F00
0780
03F0
00FC
001E
001E
01FC
00F8
0070
0000
ENDCHAR

STARTCHAR afii9834
ENCODING 231
SWIDTH 568 0
DWIDTH 16 0
BBX 16 30 0 -6
BITMAP
0000
0000
0000
0000
0000
0000
0000
0000
0000
0000
0000
3CF8
3FFC
3FFE
3E3E
3C1E
3C1E
3C1E
3C1E
3C1E
3C1E
3C1E
3C1E
3C1E
001E
001E
001E
001E
001E
0000
ENDCHAR

STARTCHAR afii9835
ENCODING 232
SWIDTH 568 0
DWIDTH 16 0
BBX 16 30 0 -6
BITMAP
0000
0000
0000
0000
0000
0000
03E0
0FF8
1FFC
1E3C
3C1E
3C1E
3C1E
3FFE
3FFE
3FFE
3C1E
3C1E
3C1E
3C1E
1E3C
1FFC
0FF8
03E0
0000
0000
0000
0000
0000
0000
ENDCHAR

STARTCHAR afii9836
ENCODING 233
SWIDTH 568 0
DWIDTH 16 0
BBX 16 30 0 -6
BITMAP
0000
0000
0000
0000
0000
0000
0000
0000
0000
0000
0000
01E0
1FE0
1FE0
01E0
01E0
01E0
01E0
01E0
01E0
01E0
01E0
1FFE
1FFE
0000
0000
0000
0000
0000
0000
ENDCHAR

STARTCHAR afii9837
ENCODING 234
SWIDTH 563 0
DWIDTH 16 0
BBX 16 30 0 -6
BITMAP
0000
0000
0000
0000
0000
0000
0000
0000
0000
0000
0000
3C3C
3C78
3CF0
3DE0
3FC0
3F80
3FC0
3DE0
3CF0
3C78
3C3C
3C1E
3C1E
0000
0000
0000
0000
0000
0000
ENDCHAR

STARTCHAR afii9838
ENCODING 235
SWIDTH 568 0
DWIDTH 16 0
BBX 16 30 0 -6
BITMAP
0000
0000
0000
0000
0000
0000
7800
3C00
1E00
0F00
0780
03C0
03C0
03E0
07F0
0FF0
0F78
1E3C
1E3C
3C1E
3C1E
3C0F
780F
780F
0000
0000
0000
0000
0000
0000
ENDCHAR

STARTCHAR afii9839
ENCODING 236
SWIDTH 568 0
DWIDTH 16 0
BBX 16 30 0 -6
BITMAP
0000
0000
0000
0000
0000
0000
0000
0000
0000
0000
0000
3C1E
3C1E
3C1E
3C1E
3C1E
3C1E
3C1E
3C1E
3C1E
3E3E
3FFE
3FFE
3FDE
3C00
3C00
3C00
3C00
3C00
0000
ENDCHAR

STARTCHAR afii9840
ENCODING 237
SWIDTH 568 0
DWIDTH 16 0
BBX 16 30 0 -6
BITMAP
0000
0000
0000
0000
0000
0000
0000
0000
0000
0000
0000
F81F
F81F
781E
3C3C
3C3C
1C38
1E78
1E70
0FF0
0FE0
07C0
0380
0380
0000
0000
0000
0000
0000
0000
ENDCHAR

STARTCHAR afii9841
ENCODING 238
SWIDTH 568 0
DWIDTH 16 0
BBX 16 30 0 -6
BITMAP
0000
0000
0000
0000
0000
0000
01F8
03F8
07F0
0F00
0F00
0F00
0780
03E0
01F0
07E0
0F80
1E00
1E00
1E00
1E00
0F00
07C0
03F8
00FC
003C
00FC
01F8
01F0
0000
ENDCHAR

STARTCHAR afii9842
ENCODING 239
SWIDTH 568 0
DWIDTH 16 0
BBX 16 30 0 -6
BITMAP
0000
0000
0000
0000
0000
0000
0000
0000
0000
0000
0000
03E0
0FF8
1FFC
3E3E
3C1E
7C1F
7C1F
7C1F
3C1E
3E3E
1FFC
0FF8
03E0
0000
0000
0000
0000
0000
0000
ENDCHAR

STARTCHAR afii9843
ENCODING 240
SWIDTH 568 0
DWIDTH 16 0
BBX 16 30 0 -6
BITMAP
0000
0000
0000
0000
0000
0000
0000
0000
0000
0000
0000
7FFF
7FFF
7FFF
3C1E
3C1E
3C1E
3C1E
3C1E
3C1E
3C1E
3C1E
3C1E
7E3F
0000
0000
0000
0000
0000
0000
ENDCHAR

STARTCHAR afii9845
ENCODING 241
SWIDTH 568 0
DWIDTH 16 0
BBX 16 30 0 -6
BITMAP
0000
0000
0000
0000
0000
0000
0000
0000
0000
0000
0000
01E0
07F8
0FFC
1E3E
3C1E
3C0F
3C0F
3C0F
3C0F
3E1E
3FFC
3FF8
3DE0
3C00
3C00
3C00
3C00
3C00
0000
ENDCHAR

STARTCHAR afii9847
ENCODING 242
SWIDTH 568 0
DWIDTH 16 0
BBX 16 30 0 -6
BITMAP
0000
0000
0000
0000
0000
0000
0000
0000
0000
0000
0000
01FC
07FF
0FFF
0F87
1F03
1F00
1F00
1F00
1F80
0FC0
0FE0
07F0
01F8
00FC
003E
01FE
01FC
0078
0000
ENDCHAR

STARTCHAR afii9846
ENCODING 243
SWIDTH 568 0
DWIDTH 16 0
BBX 16 30 0 -6
BITMAP
0000
0000
0000
0000
0000
0000
0000
0000
0000
0000
0000
07FF
1FFF
3FFF
7C7C
783C
F83E
F83E
F83E
783C
7C7C
3FF8
1FF0
07C0
0000
0000
0000
0000
0000
0000
ENDCHAR

STARTCHAR afii9848
ENCODING 244
SWIDTH 568 0
DWIDTH 16 0
BBX 16 30 0 -6
BITMAP
0000
0000
0000
0000
0000
0000
0000
0000
0000
0000
0000
3FFC
3FFC
3FFC
03C0
03C0
03C0
03C0
03C0
03C0
03C0
03C0
03C0
03C0
0000
0000
0000
0000
0000
0000
ENDCHAR

STARTCHAR afii9849
ENCODING 245
SWIDTH 568 0
DWIDTH 16 0
BBX 16 30 0 -6
BITMAP
0000
0000
0000
0000
0000
0000
0000
0000
0000
0000
0000
3C1E
3C1E
3C1E
3C1E
3C1E
3C1E
3C1E
3C1E
3C1E
3E3E
1FFC
1FFC
07F0
0000
0000
0000
0000
0000
0000
ENDCHAR

STARTCHAR afii9850
ENCODING 246
SWIDTH 568 0
DWIDTH 16 0
BBX 16 30 0 -6
BITMAP
0000
0000
0000
0000
0000
0000
0000
0000
0000
0000
0000
1EF8
3DFC
7BFE
7BDE
F3CF
F3CF
F3CF
F3CF
F3CF
7BDE
7FFE
3FFC
0FF0
03C0
03C0
03C0
03C0
03C0
0000
ENDCHAR

STARTCHAR afii9851
ENCODING 247
SWIDTH 568 0
DWIDTH 16 0
BBX 16 30 0 -6
BITMAP
0000
0000
0000
0000
0000
0000
0000
0000
0000
0000
0000
781E
781E
3C3C
3C3C
1E78
0FF0
07E0
03C0
03C0
03C0
07E0
0FF0
1E78
1E78
3C3C
3C3C
781E
781E
0000
ENDCHAR

STARTCHAR afii9852
ENCODING 248
SWIDTH 568 0
DWIDTH 16 0
BBX 16 30 0 -6
BITMAP
0000
0000
0000
0000
0000
0000
0000
0000
0000
0000
0000
F3CF
F3CF
F3CF
F3CF
F3CF
F3CF
F3CF
F3CF
F3CF
F3CF
7FFE
3FFC
0FF0
03C0
03C0
03C0
03C0
03C0
0000
ENDCHAR

STARTCHAR afii9853
ENCODING 249
SWIDTH 568 0
DWIDTH 16 0
BBX 16 30 0 -6
BITMAP
0000
0000
0000
0000
0000
0000
0000
0000
0000
0000
0000
1E78
3C3C
781E
780F
F00F
F3CF
F3CF
F3CF
F3CF
F3CF
7FFE
3FFC
1C38
0000
0000
0000
0000
0000
0000
ENDCHAR

STARTCHAR afii9975
ENCODING 250
SWIDTH 568 0
DWIDTH 16 0
BBX 16 30 0 -6
BITMAP
0000
0000
0000
0000
0000
0000
0618
0F3C
0F3C
0618
0000
01E0
1FE0
1FE0
01E0
01E0
01E0
01E0
01E0
01E0
01E0
01E0
1FFE
1FFE
0000
0000
0000
0000
0000
0000
ENDCHAR

STARTCHAR afii9976
ENCODING 251
SWIDTH 568 0
DWIDTH 16 0
BBX 16 30 0 -6
BITMAP
0000
0000
0000
0000
0000
0000
0618
0F3C
0F3C
0618
0000
3C1E
3C1E
3C1E
3C1E
3C1E
3C1E
3C1E
3C1E
3C1E
3E3E
1FFC
1FFC
07F0
0000
0000
0000
0000
0000
0000
ENDCHAR

STARTCHAR afii9972
ENCODING 252
SWIDTH 568 0
DWIDTH 16 0
BBX 16 30 0 -6
BITMAP
0000
0000
0000
0000
0000
0000
00F0
00E0
01C0
0180
0000
03E0
0FF8
1FFC
3E3E
3C1E
7C1F
7C1F
7C1F
3C1E
3E3E
1FFC
0FF8
03E0
0000
0000
0000
0000
0000
0000
ENDCHAR

STARTCHAR afii9973
ENCODING 253
SWIDTH 568 0
DWIDTH 16 0
BBX 16 30 0 -6
BITMAP
0000
0000
0000
0000
0000
0000
01E0
01C0
0380
0300
0000
3C1E
3C1E
3C1E
3C1E
3C1E
3C1E
3C1E
3C1E
3C1E
3E3E
1FFC
1FFC
07F0
0000
0000
0000
0000
0000
0000
ENDCHAR

STARTCHAR afii9974
ENCODING 254
SWIDTH 568 0
DWIDTH 16 0
BBX 16 30 0 -6
BITMAP
0000
0000
0000
0000
0000
0000
01E0
01C0
0380
0300
0000
1E78
3C3C
781E
780F
F00F
F3CF
F3CF
F3CF
F3CF
F3CF
7FFE
3FFC
1C38
0000
0000
0000
0000
0000
0000
ENDCHAR
ENDFONT
